<mxfile host="app.diagrams.net" modified="2024-01-10T00:00:00.000Z" agent="5.0" etag="" version="22.1.16" type="device">
  <diagram id="Backup-Replication-Flows" name="Backup &amp; Replication Flows">
    <mxGraphModel dx="2074" dy="1196" grid="1" gridSize="10" guides="1" tooltips="1" connect="1" arrows="1" fold="1" page="1" pageScale="1" pageWidth="1654" pageHeight="1169" math="0" shadow="0">
      <root>
        <mxCell id="0" />
        <mxCell id="1" parent="0" />
        
        <!-- Title -->
        <mxCell id="title" value="SIRE Backup &amp; Replication Flows - Multi-Layer Data Protection Strategy" style="text;html=1;strokeColor=none;fillColor=none;align=center;verticalAlign=middle;whiteSpace=wrap;rounded=0;fontSize=24;fontStyle=1;fontColor=#2F5496;" vertex="1" parent="1">
          <mxGeometry x="327" y="20" width="1000" height="40" as="geometry" />
        </mxCell>
        
        <!-- Protection Layer Legend -->
        <mxCell id="protection-legend" value="" style="rounded=1;whiteSpace=wrap;html=1;fillColor=#F2F2F2;strokeColor=#666666;strokeWidth=1;" vertex="1" parent="1">
          <mxGeometry x="20" y="80" width="280" height="220" as="geometry" />
        </mxCell>
        <mxCell id="legend-title" value="Data Protection Layers" style="text;html=1;strokeColor=none;fillColor=none;align=center;verticalAlign=middle;whiteSpace=wrap;rounded=0;fontSize=16;fontStyle=1;" vertex="1" parent="1">
          <mxGeometry x="70" y="90" width="180" height="25" as="geometry" />
        </mxCell>
        
        <!-- Real-time Replication -->
        <mxCell id="realtime-legend" value="" style="rounded=1;whiteSpace=wrap;html=1;fillColor=#FFCDD2;strokeColor=#D32F2F;strokeWidth=3;" vertex="1" parent="1">
          <mxGeometry x="30" y="125" width="25" height="20" as="geometry" />
        </mxCell>
        <mxCell id="realtime-text" value="Real-time Replication (Synchronous)" style="text;html=1;strokeColor=none;fillColor=none;align=left;verticalAlign=middle;whiteSpace=wrap;rounded=0;fontSize=11;fontStyle=1;" vertex="1" parent="1">
          <mxGeometry x="65" y="123" width="220" height="25" as="geometry" />
        </mxCell>
        
        <!-- Near Real-time -->
        <mxCell id="nearrealtime-legend" value="" style="rounded=1;whiteSpace=wrap;html=1;fillColor=#FFE0B2;strokeColor=#F57C00;strokeWidth=3;" vertex="1" parent="1">
          <mxGeometry x="30" y="155" width="25" height="20" as="geometry" />
        </mxCell>
        <mxCell id="nearrealtime-text" value="Near Real-time (Asynchronous)" style="text;html=1;strokeColor=none;fillColor=none;align=left;verticalAlign=middle;whiteSpace=wrap;rounded=0;fontSize=11;fontStyle=1;" vertex="1" parent="1">
          <mxGeometry x="65" y="153" width="220" height="25" as="geometry" />
        </mxCell>
        
        <!-- Scheduled Backup -->
        <mxCell id="scheduled-legend" value="" style="rounded=1;whiteSpace=wrap;html=1;fillColor=#C8E6C9;strokeColor=#388E3C;strokeWidth=3;" vertex="1" parent="1">
          <mxGeometry x="30" y="185" width="25" height="20" as="geometry" />
        </mxCell>
        <mxCell id="scheduled-text" value="Scheduled Backup (Periodic)" style="text;html=1;strokeColor=none;fillColor=none;align=left;verticalAlign=middle;whiteSpace=wrap;rounded=0;fontSize=11;fontStyle=1;" vertex="1" parent="1">
          <mxGeometry x="65" y="183" width="220" height="25" as="geometry" />
        </mxCell>
        
        <!-- Archive Storage -->
        <mxCell id="archive-legend" value="" style="rounded=1;whiteSpace=wrap;html=1;fillColor=#E1F5FE;strokeColor=#0277BD;strokeWidth=3;" vertex="1" parent="1">
          <mxGeometry x="30" y="215" width="25" height="20" as="geometry" />
        </mxCell>
        <mxCell id="archive-text" value="Archive Storage (Long-term)" style="text;html=1;strokeColor=none;fillColor=none;align=left;verticalAlign=middle;whiteSpace=wrap;rounded=0;fontSize=11;fontStyle=1;" vertex="1" parent="1">
          <mxGeometry x="65" y="213" width="220" height="25" as="geometry" />
        </mxCell>
        
        <!-- Cross-Region -->
        <mxCell id="crossregion-legend" value="" style="rounded=1;whiteSpace=wrap;html=1;fillColor=#F3E5F5;strokeColor=#7B1FA2;strokeWidth=3;" vertex="1" parent="1">
          <mxGeometry x="30" y="245" width="25" height="20" as="geometry" />
        </mxCell>
        <mxCell id="crossregion-text" value="Cross-Region Replication" style="text;html=1;strokeColor=none;fillColor=none;align=left;verticalAlign=middle;whiteSpace=wrap;rounded=0;fontSize=11;fontStyle=1;" vertex="1" parent="1">
          <mxGeometry x="65" y="243" width="220" height="25" as="geometry" />
        </mxCell>
        
        <!-- Immutable -->
        <mxCell id="immutable-legend" value="" style="rounded=1;whiteSpace=wrap;html=1;fillColor=#FFECB3;strokeColor=#F57F17;strokeWidth=3;" vertex="1" parent="1">
          <mxGeometry x="30" y="275" width="25" height="20" as="geometry" />
        </mxCell>
        <mxCell id="immutable-text" value="Immutable Storage (WORM)" style="text;html=1;strokeColor=none;fillColor=none;align=left;verticalAlign=middle;whiteSpace=wrap;rounded=0;fontSize=11;fontStyle=1;" vertex="1" parent="1">
          <mxGeometry x="65" y="273" width="220" height="25" as="geometry" />
        </mxCell>
        
        <!-- Production Environment -->
        <mxCell id="production-env" value="Production Environment (East US 2)" style="rounded=1;whiteSpace=wrap;html=1;fillColor=#D5E8D4;strokeColor=#82B366;strokeWidth=4;fontSize=16;fontStyle=1;verticalAlign=top;align=center;" vertex="1" parent="1">
          <mxGeometry x="340" y="80" width="320" height="280" as="geometry" />
        </mxCell>
        
        <!-- Production Applications -->
        <mxCell id="prod-app-tier" value="Application Tier" style="rounded=1;whiteSpace=wrap;html=1;fillColor=#E8F5E8;strokeColor=#4CAF50;strokeWidth=2;fontSize=14;fontStyle=1;verticalAlign=top;align=center;" vertex="1" parent="1">
          <mxGeometry x="360" y="120" width="120" height="100" as="geometry" />
        </mxCell>
        
        <!-- App Service -->
        <mxCell id="app-service" value="" style="image;aspect=fixed;html=1;points=[];align=center;fontSize=12;image=img/lib/azure2/app_services/App_Services.svg;" vertex="1" parent="1">
          <mxGeometry x="375" y="140" width="40" height="40" as="geometry" />
        </mxCell>
        <mxCell id="app-label" value="App Service" style="text;html=1;strokeColor=none;fillColor=none;align=center;verticalAlign=middle;whiteSpace=wrap;rounded=0;fontSize=10;" vertex="1" parent="1">
          <mxGeometry x="360" y="185" width="70" height="15" as="geometry" />
        </mxCell>
        
        <!-- Function App -->
        <mxCell id="function-app" value="" style="image;aspect=fixed;html=1;points=[];align=center;fontSize=12;image=img/lib/azure2/compute/Function_Apps.svg;" vertex="1" parent="1">
          <mxGeometry x="430" y="140" width="40" height="40" as="geometry" />
        </mxCell>
        <mxCell id="func-label" value="Functions" style="text;html=1;strokeColor=none;fillColor=none;align=center;verticalAlign=middle;whiteSpace=wrap;rounded=0;fontSize=10;" vertex="1" parent="1">
          <mxGeometry x="420" y="185" width="60" height="15" as="geometry" />
        </mxCell>
        
        <!-- Production Data Tier -->
        <mxCell id="prod-data-tier" value="Data Tier" style="rounded=1;whiteSpace=wrap;html=1;fillColor=#E8F5E8;strokeColor=#4CAF50;strokeWidth=2;fontSize=14;fontStyle=1;verticalAlign=top;align=center;" vertex="1" parent="1">
          <mxGeometry x="500" y="120" width="140" height="100" as="geometry" />
        </mxCell>
        
        <!-- SQL Database -->
        <mxCell id="sql-database" value="" style="image;aspect=fixed;html=1;points=[];align=center;fontSize=12;image=img/lib/azure2/databases/SQL_Database.svg;" vertex="1" parent="1">
          <mxGeometry x="520" y="140" width="40" height="40" as="geometry" />
        </mxCell>
        <mxCell id="sql-label" value="SQL Database" style="text;html=1;strokeColor=none;fillColor=none;align=center;verticalAlign=middle;whiteSpace=wrap;rounded=0;fontSize=10;" vertex="1" parent="1">
          <mxGeometry x="505" y="185" width="70" height="15" as="geometry" />
        </mxCell>
        
        <!-- Cosmos DB -->
        <mxCell id="cosmos-db" value="" style="image;aspect=fixed;html=1;points=[];align=center;fontSize=12;image=img/lib/azure2/databases/Azure_Cosmos_DB.svg;" vertex="1" parent="1">
          <mxGeometry x="580" y="140" width="40" height="40" as="geometry" />
        </mxCell>
        <mxCell id="cosmos-label" value="Cosmos DB" style="text;html=1;strokeColor=none;fillColor=none;align=center;verticalAlign=middle;whiteSpace=wrap;rounded=0;fontSize=10;" vertex="1" parent="1">
          <mxGeometry x="565" y="185" width="70" height="15" as="geometry" />
        </mxCell>
        
        <!-- Production Storage -->
        <mxCell id="prod-storage-tier" value="Storage Tier" style="rounded=1;whiteSpace=wrap;html=1;fillColor=#E8F5E8;strokeColor=#4CAF50;strokeWidth=2;fontSize=14;fontStyle=1;verticalAlign=top;align=center;" vertex="1" parent="1">
          <mxGeometry x="360" y="240" width="280" height="100" as="geometry" />
        </mxCell>
        
        <!-- Blob Storage -->
        <mxCell id="blob-storage" value="" style="image;aspect=fixed;html=1;points=[];align=center;fontSize=12;image=img/lib/azure2/storage/Storage_Accounts.svg;" vertex="1" parent="1">
          <mxGeometry x="380" y="260" width="40" height="32" as="geometry" />
        </mxCell>
        <mxCell id="blob-label" value="Blob Storage" style="text;html=1;strokeColor=none;fillColor=none;align=center;verticalAlign=middle;whiteSpace=wrap;rounded=0;fontSize=10;" vertex="1" parent="1">
          <mxGeometry x="365" y="295" width="70" height="15" as="geometry" />
        </mxCell>
        
        <!-- File Shares -->
        <mxCell id="file-shares" value="" style="image;aspect=fixed;html=1;points=[];align=center;fontSize=12;image=img/lib/azure2/storage/Storage_Explorer.svg;" vertex="1" parent="1">
          <mxGeometry x="450" y="260" width="40" height="40" as="geometry" />
        </mxCell>
        <mxCell id="file-label" value="File Shares" style="text;html=1;strokeColor=none;fillColor=none;align=center;verticalAlign=middle;whiteSpace=wrap;rounded=0;fontSize=10;" vertex="1" parent="1">
          <mxGeometry x="435" y="305" width="70" height="15" as="geometry" />
        </mxCell>
        
        <!-- Managed Disks -->
        <mxCell id="managed-disks" value="" style="outlineConnect=0;dashed=0;verticalLabelPosition=bottom;verticalAlign=top;align=center;html=1;shape=image;image=data:image/svg+xml;base64,PHN2ZyB4bWxucz0iaHR0cDovL3d3dy53My5vcmcvMjAwMC9zdmciIHZpZXdCb3g9IjAgMCA0OCA0OCIgZmlsbD0iIzAwNzhENCIgaGVpZ2h0PSI0OCIgd2lkdGg9IjQ4Ij4KICA8ZGVmcz4KICAgIDxsaW5lYXJHcmFkaWVudCBpZD0iZGlza0dyYWQiIHgxPSIwJSIgeTE9IjAlIiB4Mj0iMTAwJSIgeTI9IjEwMCUiPgogICAgICA8c3RvcCBvZmZzZXQ9IjAlIiBzdHlsZT0ic3RvcC1jb2xvcjojMDA3OEQ0O3N0b3Atb3BhY2l0eToxIiAvPgogICAgICA8c3RvcCBvZmZzZXQ9IjEwMCUiIHN0eWxlPSJzdG9wLWNvbG9yOiMwMDVBOUU7c3RvcC1vcGFjaXR5OjEiIC8+CiAgICA8L2xpbmVhckdyYWRpZW50PgogIDwvZGVmcz4KICA8Y2lyY2xlIGN4PSIyNCIgY3k9IjI0IiByPSIyMCIgZmlsbD0idXJsKCNkaXNrR3JhZCkiLz4KICA8Y2lyY2xlIGN4PSIyNCIgY3k9IjI0IiByPSIxNiIgZmlsbD0iI0ZGRkZGRiIvPgogIDxjaXJjbGUgY3g9IjI0IiBjeT0iMjQiIHI9IjEyIiBmaWxsPSIjMDA3OEQ0Ii8+CiAgPGNpcmNsZSBjeD0iMjQiIGN5PSIyNCIgcj0iOCIgZmlsbD0iI0ZGRkZGRiIvPgogIDxjaXJjbGUgY3g9IjI0IiBjeT0iMjQiIHI9IjQiIGZpbGw9IiMwMDc4RDQiLz4KICA8cGF0aCBkPSJNMjQgNFY4TTI0IDQwVjQ0TTQgMjRIOE00MCAyNEg0NCIgc3Ryb2tlPSIjMDA3OEQ0IiBzdHJva2Utd2lkdGg9IjEuNSIvPgogIDxwYXRoIGQ9Ik0zNS4zIDEyLjdMMzIuNSAxNS41TTE1LjUgMzIuNUwxMi43IDM1LjNNMzUuMyAzNS4zTDMyLjUgMzIuNU0xNS41IDE1LjVMMTIuNyAxMi43IiBzdHJva2U9IiMwMDc4RDQiIHN0cm9rZS13aWR0aD0iMS41Ii8+Cjwvc3ZnPg==;fillColor=#0078D4;strokeColor=none;" vertex="1" parent="1">
          <mxGeometry x="520" y="260" width="40" height="40" as="geometry" />
        </mxCell>
        <mxCell id="disk-label" value="Managed Disks" style="text;html=1;strokeColor=none;fillColor=none;align=center;verticalAlign=middle;whiteSpace=wrap;rounded=0;fontSize=10;" vertex="1" parent="1">
          <mxGeometry x="500" y="305" width="80" height="15" as="geometry" />
        </mxCell>
        
        <!-- VM Images -->
        <mxCell id="vm-images" value="" style="image;aspect=fixed;html=1;points=[];align=center;fontSize=12;image=img/lib/azure2/compute/Images.svg;" vertex="1" parent="1">
          <mxGeometry x="590" y="260" width="40" height="40" as="geometry" />
        </mxCell>
        <mxCell id="image-label" value="VM Images" style="text;html=1;strokeColor=none;fillColor=none;align=center;verticalAlign=middle;whiteSpace=wrap;rounded=0;fontSize=10;" vertex="1" parent="1">
          <mxGeometry x="575" y="305" width="70" height="15" as="geometry" />
        </mxCell>
        
        <!-- Local Backup Layer -->
        <mxCell id="local-backup" value="Local Backup Layer (Same Region)" style="rounded=1;whiteSpace=wrap;html=1;fillColor=#DAE8FC;strokeColor=#6C8EBF;strokeWidth=4;fontSize=16;fontStyle=1;verticalAlign=top;align=center;" vertex="1" parent="1">
          <mxGeometry x="340" y="400" width="320" height="160" as="geometry" />
        </mxCell>
        
        <!-- Recovery Services Vault -->
        <mxCell id="recovery-vault" value="" style="image;aspect=fixed;html=1;points=[];align=center;fontSize=12;image=img/lib/azure2/storage/Recovery_Services_Vaults.svg;" vertex="1" parent="1">
          <mxGeometry x="370" y="440" width="50" height="40" as="geometry" />
        </mxCell>
        <mxCell id="vault-label" value="Recovery Services&#xa;Vault" style="text;html=1;strokeColor=none;fillColor=none;align=center;verticalAlign=middle;whiteSpace=wrap;rounded=0;fontSize=10;fontStyle=1;" vertex="1" parent="1">
          <mxGeometry x="350" y="485" width="90" height="25" as="geometry" />
        </mxCell>
        
        <!-- Azure Backup -->
        <mxCell id="azure-backup" value="" style="outlineConnect=0;dashed=0;verticalLabelPosition=bottom;verticalAlign=top;align=center;html=1;shape=image;image=data:image/svg+xml;base64,PHN2ZyB4bWxucz0iaHR0cDovL3d3dy53My5vcmcvMjAwMC9zdmciIHZpZXdCb3g9IjAgMCA0OCA0OCIgZmlsbD0iIzAwNzhENCIgaGVpZ2h0PSI0OCIgd2lkdGg9IjQ4Ij4KICA8ZGVmcz4KICAgIDxsaW5lYXJHcmFkaWVudCBpZD0iYmFja3VwR3JhZCIgeDE9IjAlIiB5MT0iMCUiIHgyPSIxMDAlIiB5Mj0iMTAwJSI+CiAgICAgIDxzdG9wIG9mZnNldD0iMCUiIHN0eWxlPSJzdG9wLWNvbG9yOiMwMDc4RDQ7c3RvcC1vcGFjaXR5OjEiIC8+CiAgICAgIDxzdG9wIG9mZnNldD0iMTAwJSIgc3R5bGU9InN0b3AtY29sb3I6IzAwNUE5RTtzdG9wLW9wYWNpdHk6MSIgLz4KICAgIDwvbGluZWFyR3JhZGllbnQ+CiAgPC9kZWZzPgogIDxwYXRoIGQ9Ik04IDEwSDE2TDI0IDZMMzIgMTBINDBWMzhIOFYxMFoiIGZpbGw9InVybCgjYmFja3VwR3JhZCkiLz4KICA8cGF0aCBmaWxsPSIjRkZGRkZGIiBkPSJNMTIgMTZIMzZWMzRIMTJWMTZaIi8+CiAgPHBhdGggZmlsbD0iIzAwNzhENCIgZD0iTTE2IDIwSDMyVjMwSDE2VjIwWiIvPgogIDxwYXRoIGZpbGw9IiNGRkZGRkYiIGQ9Ik0yMCAyM0gyOFYyN0gyMFYyM1oiLz4KICA8Y2lyY2xlIGN4PSIyNCIgY3k9IjI1IiByPSIxIiBmaWxsPSIjMDA3OEQ0Ii8+CiAgPHBhdGggZD0iTTI0IDEyTDIwIDE0VjE4TDI0IDE2TDI4IDE4VjE0TDI0IDEyWiIgZmlsbD0iI0ZGRkZGRiIvPgo8L3N2Zz4=;fillColor=#0078D4;strokeColor=none;" vertex="1" parent="1">
          <mxGeometry x="470" y="440" width="50" height="50" as="geometry" />
        </mxCell>
        <mxCell id="backup-label" value="Azure Backup&#xa;Agent" style="text;html=1;strokeColor=none;fillColor=none;align=center;verticalAlign=middle;whiteSpace=wrap;rounded=0;fontSize=10;fontStyle=1;" vertex="1" parent="1">
          <mxGeometry x="450" y="495" width="90" height="25" as="geometry" />
        </mxCell>
        
        <!-- Snapshot Storage -->
        <mxCell id="snapshot-storage" value="" style="image;aspect=fixed;html=1;points=[];align=center;fontSize=12;image=img/lib/azure2/storage/Disk_Snapshot.svg;" vertex="1" parent="1">
          <mxGeometry x="570" y="440" width="50" height="50" as="geometry" />
        </mxCell>
        <mxCell id="snapshot-label" value="Disk Snapshots&#xa;&amp; Incremental" style="text;html=1;strokeColor=none;fillColor=none;align=center;verticalAlign=middle;whiteSpace=wrap;rounded=0;fontSize=10;fontStyle=1;" vertex="1" parent="1">
          <mxGeometry x="550" y="495" width="90" height="25" as="geometry" />
        </mxCell>
        
        <!-- Backup Schedule Info -->
        <mxCell id="backup-schedule" value="🕐 Backup Schedule:&#xa;• VM: Daily (2 AM)&#xa;• SQL: Every 15 minutes (log backup)&#xa;• Files: Every 6 hours&#xa;• Retention: 30 days local" style="text;html=1;strokeColor=#1976D2;fillColor=#E3F2FD;align=left;verticalAlign=middle;whiteSpace=wrap;rounded=1;fontSize=10;" vertex="1" parent="1">
          <mxGeometry x="360" y="520" width="260" height="35" as="geometry" />
        </mxCell>
        
        <!-- SIRE Environment -->
        <mxCell id="sire-env" value="SIRE Environment (West US 2)" style="rounded=1;whiteSpace=wrap;html=1;fillColor=#FFE6CC;strokeColor=#D79B00;strokeWidth=4;fontSize=16;fontStyle=1;verticalAlign=top;align=center;" vertex="1" parent="1">
          <mxGeometry x="700" y="80" width="320" height="280" as="geometry" />
        </mxCell>
        
        <!-- SIRE Recovery Services -->
        <mxCell id="sire-recovery" value="Site Recovery" style="rounded=1;whiteSpace=wrap;html=1;fillColor=#FFF2E6;strokeColor=#FF8000;strokeWidth=2;fontSize=14;fontStyle=1;verticalAlign=top;align=center;" vertex="1" parent="1">
          <mxGeometry x="720" y="120" width="120" height="100" as="geometry" />
        </mxCell>
        
        <!-- Azure Site Recovery -->
        <mxCell id="site-recovery" value="" style="image;aspect=fixed;html=1;points=[];align=center;fontSize=12;image=img/lib/azure2/migrate/Azure_Site_Recovery.svg;" vertex="1" parent="1">
          <mxGeometry x="735" y="140" width="40" height="40" as="geometry" />
        </mxCell>
        <mxCell id="asr-label" value="Site Recovery" style="text;html=1;strokeColor=none;fillColor=none;align=center;verticalAlign=middle;whiteSpace=wrap;rounded=0;fontSize=10;" vertex="1" parent="1">
          <mxGeometry x="720" y="185" width="70" height="15" as="geometry" />
        </mxCell>
        
        <!-- Process Server -->
        <mxCell id="process-server" value="" style="image;aspect=fixed;html=1;points=[];align=center;fontSize=12;image=img/lib/azure2/compute/Virtual_Machines.svg;" vertex="1" parent="1">
          <mxGeometry x="790" y="140" width="40" height="36" as="geometry" />
        </mxCell>
        <mxCell id="process-label" value="Process Server" style="text;html=1;strokeColor=none;fillColor=none;align=center;verticalAlign=middle;whiteSpace=wrap;rounded=0;fontSize=10;" vertex="1" parent="1">
          <mxGeometry x="775" y="185" width="70" height="15" as="geometry" />
        </mxCell>
        
        <!-- SIRE Restored Services -->
        <mxCell id="sire-restored" value="Restored Services" style="rounded=1;whiteSpace=wrap;html=1;fillColor=#FFF2E6;strokeColor=#FF8000;strokeWidth=2;fontSize=14;fontStyle=1;verticalAlign=top;align=center;" vertex="1" parent="1">
          <mxGeometry x="860" y="120" width="140" height="100" as="geometry" />
        </mxCell>
        
        <!-- Restored App -->
        <mxCell id="restored-app" value="" style="image;aspect=fixed;html=1;points=[];align=center;fontSize=12;image=img/lib/azure2/app_services/App_Services.svg;" vertex="1" parent="1">
          <mxGeometry x="880" y="140" width="40" height="40" as="geometry" />
        </mxCell>
        <mxCell id="restored-app-label" value="Restored Apps" style="text;html=1;strokeColor=none;fillColor=none;align=center;verticalAlign=middle;whiteSpace=wrap;rounded=0;fontSize=10;" vertex="1" parent="1">
          <mxGeometry x="865" y="185" width="70" height="15" as="geometry" />
        </mxCell>
        
        <!-- Restored Data -->
        <mxCell id="restored-data" value="" style="image;aspect=fixed;html=1;points=[];align=center;fontSize=12;image=img/lib/azure2/databases/SQL_Database.svg;" vertex="1" parent="1">
          <mxGeometry x="940" y="140" width="40" height="40" as="geometry" />
        </mxCell>
        <mxCell id="restored-data-label" value="Restored Data" style="text;html=1;strokeColor=none;fillColor=none;align=center;verticalAlign=middle;whiteSpace=wrap;rounded=0;fontSize=10;" vertex="1" parent="1">
          <mxGeometry x="925" y="185" width="70" height="15" as="geometry" />
        </mxCell>
        
        <!-- SIRE Storage -->
        <mxCell id="sire-storage" value="SIRE Storage" style="rounded=1;whiteSpace=wrap;html=1;fillColor=#FFF2E6;strokeColor=#FF8000;strokeWidth=2;fontSize=14;fontStyle=1;verticalAlign=top;align=center;" vertex="1" parent="1">
          <mxGeometry x="720" y="240" width="280" height="100" as="geometry" />
        </mxCell>
        
        <!-- SIRE Recovery Vault -->
        <mxCell id="sire-vault" value="" style="image;aspect=fixed;html=1;points=[];align=center;fontSize=12;image=img/lib/azure2/storage/Recovery_Services_Vaults.svg;" vertex="1" parent="1">
          <mxGeometry x="740" y="260" width="50" height="40" as="geometry" />
        </mxCell>
        <mxCell id="sire-vault-label" value="SIRE Recovery&#xa;Vault" style="text;html=1;strokeColor=none;fillColor=none;align=center;verticalAlign=middle;whiteSpace=wrap;rounded=0;fontSize=10;" vertex="1" parent="1">
          <mxGeometry x="720" y="305" width="90" height="25" as="geometry" />
        </mxCell>
        
        <!-- Cache Storage -->
        <mxCell id="cache-storage" value="" style="image;aspect=fixed;html=1;points=[];align=center;fontSize=12;image=img/lib/azure2/storage/Storage_Accounts.svg;" vertex="1" parent="1">
          <mxGeometry x="820" y="260" width="50" height="40" as="geometry" />
        </mxCell>
        <mxCell id="cache-label" value="Cache Storage&#xa;(Site Recovery)" style="text;html=1;strokeColor=none;fillColor=none;align=center;verticalAlign=middle;whiteSpace=wrap;rounded=0;fontSize=10;" vertex="1" parent="1">
          <mxGeometry x="800" y="305" width="90" height="25" as="geometry" />
        </mxCell>
        
        <!-- Replica Storage -->
        <mxCell id="replica-storage" value="" style="image;aspect=fixed;html=1;points=[];align=center;fontSize=12;image=img/lib/azure2/storage/Storage_Accounts.svg;" vertex="1" parent="1">
          <mxGeometry x="900" y="260" width="50" height="40" as="geometry" />
        </mxCell>
        <mxCell id="replica-label" value="Replica Storage&#xa;(Hot Standby)" style="text;html=1;strokeColor=none;fillColor=none;align=center;verticalAlign=middle;whiteSpace=wrap;rounded=0;fontSize=10;" vertex="1" parent="1">
          <mxGeometry x="880" y="305" width="90" height="25" as="geometry" />
        </mxCell>
        
        <!-- Cross-Region Backup -->
        <mxCell id="crossregion-backup" value="Cross-Region Backup (Central US)" style="rounded=1;whiteSpace=wrap;html=1;fillColor=#F3E5F5;strokeColor=#7B1FA2;strokeWidth=4;fontSize=16;fontStyle=1;verticalAlign=top;align=center;" vertex="1" parent="1">
          <mxGeometry x="700" y="400" width="320" height="160" as="geometry" />
        </mxCell>
        
        <!-- GRS Storage -->
        <mxCell id="grs-storage" value="" style="image;aspect=fixed;html=1;points=[];align=center;fontSize=12;image=img/lib/azure2/storage/Storage_Accounts.svg;" vertex="1" parent="1">
          <mxGeometry x="730" y="440" width="50" height="40" as="geometry" />
        </mxCell>
        <mxCell id="grs-label" value="GRS Storage&#xa;(Geo-Redundant)" style="text;html=1;strokeColor=none;fillColor=none;align=center;verticalAlign=middle;whiteSpace=wrap;rounded=0;fontSize=10;fontStyle=1;" vertex="1" parent="1">
          <mxGeometry x="710" y="485" width="90" height="25" as="geometry" />
        </mxCell>
        
        <!-- SQL LTR -->
        <mxCell id="sql-ltr" value="" style="image;aspect=fixed;html=1;points=[];align=center;fontSize=12;image=img/lib/azure2/databases/SQL_Database.svg;" vertex="1" parent="1">
          <mxGeometry x="830" y="440" width="50" height="50" as="geometry" />
        </mxCell>
        <mxCell id="sql-ltr-label" value="SQL LTR&#xa;(Long-term Retention)" style="text;html=1;strokeColor=none;fillColor=none;align=center;verticalAlign=middle;whiteSpace=wrap;rounded=0;fontSize=10;fontStyle=1;" vertex="1" parent="1">
          <mxGeometry x="810" y="495" width="90" height="25" as="geometry" />
        </mxCell>
        
        <!-- Cross-Region Vault -->
        <mxCell id="crossregion-vault" value="" style="image;aspect=fixed;html=1;points=[];align=center;fontSize=12;image=img/lib/azure2/storage/Recovery_Services_Vaults.svg;" vertex="1" parent="1">
          <mxGeometry x="930" y="440" width="50" height="40" as="geometry" />
        </mxCell>
        <mxCell id="crossregion-vault-label" value="Cross-Region&#xa;Recovery Vault" style="text;html=1;strokeColor=none;fillColor=none;align=center;verticalAlign=middle;whiteSpace=wrap;rounded=0;fontSize=10;fontStyle=1;" vertex="1" parent="1">
          <mxGeometry x="910" y="485" width="90" height="25" as="geometry" />
        </mxCell>
        
        <!-- Cross-Region Schedule -->
        <mxCell id="crossregion-schedule" value="🌐 Cross-Region Schedule:&#xa;• VM: Daily backup replication&#xa;• SQL: LTR every week (10 years)&#xa;• Storage: GRS automatic&#xa;• Retention: 7 years compliance" style="text;html=1;strokeColor=#7B1FA2;fillColor=#F3E5F5;align=left;verticalAlign=middle;whiteSpace=wrap;rounded=1;fontSize=10;" vertex="1" parent="1">
          <mxGeometry x="720" y="520" width="280" height="35" as="geometry" />
        </mxCell>
        
        <!-- Archive and Compliance Layer -->
        <mxCell id="archive-layer" value="Archive &amp; Compliance Layer (Global)" style="rounded=1;whiteSpace=wrap;html=1;fillColor=#FFECB3;strokeColor=#F57F17;strokeWidth=4;fontSize=16;fontStyle=1;verticalAlign=top;align=center;" vertex="1" parent="1">
          <mxGeometry x="1060" y="80" width="320" height="480" as="geometry" />
        </mxCell>
        
        <!-- Immutable Storage -->
        <mxCell id="immutable-storage" value="" style="image;aspect=fixed;html=1;points=[];align=center;fontSize=12;image=img/lib/azure2/storage/Storage_Accounts.svg;" vertex="1" parent="1">
          <mxGeometry x="1090" y="120" width="50" height="40" as="geometry" />
        </mxCell>
        <mxCell id="immutable-label" value="Immutable Storage&#xa;(WORM Compliance)" style="text;html=1;strokeColor=none;fillColor=none;align=center;verticalAlign=middle;whiteSpace=wrap;rounded=0;fontSize=11;fontStyle=1;" vertex="1" parent="1">
          <mxGeometry x="1070" y="165" width="90" height="25" as="geometry" />
        </mxCell>
        
        <!-- Archive Storage -->
        <mxCell id="archive-storage-tier" value="" style="image;aspect=fixed;html=1;points=[];align=center;fontSize=12;image=img/lib/azure2/storage/StorSimple_Data_Managers.svg;" vertex="1" parent="1">
          <mxGeometry x="1200" y="120" width="50" height="50" as="geometry" />
        </mxCell>
        <mxCell id="archive-storage-label" value="Archive Storage&#xa;(Cold Tier)" style="text;html=1;strokeColor=none;fillColor=none;align=center;verticalAlign=middle;whiteSpace=wrap;rounded=0;fontSize=11;fontStyle=1;" vertex="1" parent="1">
          <mxGeometry x="1180" y="175" width="90" height="25" as="geometry" />
        </mxCell>
        
        <!-- Data Box -->
        <mxCell id="data-box" value="" style="image;aspect=fixed;html=1;points=[];align=center;fontSize=12;image=img/lib/azure2/migrate/Data_Box.svg;" vertex="1" parent="1">
          <mxGeometry x="1310" y="120" width="50" height="40" as="geometry" />
        </mxCell>
        <mxCell id="databox-label" value="Data Box&#xa;(Offline Transfer)" style="text;html=1;strokeColor=none;fillColor=none;align=center;verticalAlign=middle;whiteSpace=wrap;rounded=0;fontSize=11;fontStyle=1;" vertex="1" parent="1">
          <mxGeometry x="1290" y="165" width="90" height="25" as="geometry" />
        </mxCell>
        
        <!-- Compliance Tools -->
        <mxCell id="compliance-title" value="Compliance &amp; Governance Tools" style="text;html=1;strokeColor=#F57F17;fillColor=#FFF8E1;align=center;verticalAlign=middle;whiteSpace=wrap;rounded=1;fontSize=14;fontStyle=1;" vertex="1" parent="1">
          <mxGeometry x="1080" y="220" width="280" height="25" as="geometry" />
        </mxCell>
        
        <!-- Microsoft Purview -->
        <mxCell id="purview" value="" style="image;aspect=fixed;html=1;points=[];align=center;fontSize=12;image=img/lib/azure2/analytics/Azure_Purview_Accounts.svg;" vertex="1" parent="1">
          <mxGeometry x="1090" y="260" width="50" height="50" as="geometry" />
        </mxCell>
        <mxCell id="purview-label" value="Microsoft Purview&#xa;(Data Governance)" style="text;html=1;strokeColor=none;fillColor=none;align=center;verticalAlign=middle;whiteSpace=wrap;rounded=0;fontSize=10;" vertex="1" parent="1">
          <mxGeometry x="1070" y="315" width="90" height="25" as="geometry" />
        </mxCell>
        
        <!-- Policy -->
        <mxCell id="azure-policy" value="" style="image;aspect=fixed;html=1;points=[];align=center;fontSize=12;image=img/lib/azure2/management_governance/Policy.svg;" vertex="1" parent="1">
          <mxGeometry x="1200" y="260" width="50" height="50" as="geometry" />
        </mxCell>
        <mxCell id="policy-label" value="Azure Policy&#xa;(Compliance)" style="text;html=1;strokeColor=none;fillColor=none;align=center;verticalAlign=middle;whiteSpace=wrap;rounded=0;fontSize=10;" vertex="1" parent="1">
          <mxGeometry x="1180" y="315" width="90" height="25" as="geometry" />
        </mxCell>
        
        <!-- Audit Logs -->
        <mxCell id="audit-logs" value="" style="image;aspect=fixed;html=1;points=[];align=center;fontSize=12;image=img/lib/azure2/monitor/Activity_Log.svg;" vertex="1" parent="1">
          <mxGeometry x="1310" y="260" width="50" height="50" as="geometry" />
        </mxCell>
        <mxCell id="audit-label" value="Activity Logs&#xa;(Audit Trail)" style="text;html=1;strokeColor=none;fillColor=none;align=center;verticalAlign=middle;whiteSpace=wrap;rounded=0;fontSize=10;" vertex="1" parent="1">
          <mxGeometry x="1290" y="315" width="90" height="25" as="geometry" />
        </mxCell>
        
        <!-- Retention Policies -->
        <mxCell id="retention-policies" value="📋 Retention Policies" style="text;html=1;strokeColor=#1976D2;fillColor=#E3F2FD;align=center;verticalAlign=middle;whiteSpace=wrap;rounded=1;fontSize=14;fontStyle=1;" vertex="1" parent="1">
          <mxGeometry x="1080" y="360" width="280" height="25" as="geometry" />
        </mxCell>
        <mxCell id="retention-details" value="• Daily backups: 30 days local retention&#xa;• Weekly backups: 12 weeks regional&#xa;• Monthly backups: 12 months cross-region&#xa;• Yearly backups: 10 years archive&#xa;• Legal hold: Indefinite (litigation)&#xa;• GDPR deletion: Automated upon request&#xa;• SOX compliance: 7 years minimum&#xa;• Immutable for 2 years (ransomware)" style="text;html=1;strokeColor=none;fillColor=none;align=left;verticalAlign=middle;whiteSpace=wrap;rounded=0;fontSize=10;" vertex="1" parent="1">
          <mxGeometry x="1100" y="395" width="260" height="120" as="geometry" />
        </mxCell>
        
        <!-- Cost Management -->
        <mxCell id="cost-optimization-title" value="💰 Cost Optimization Strategy" style="text;html=1;strokeColor=#2E7D32;fillColor=#C8E6C9;align=center;verticalAlign=middle;whiteSpace=wrap;rounded=1;fontSize=14;fontStyle=1;" vertex="1" parent="1">
          <mxGeometry x="1080" y="530" width="280" height="25" as="geometry" />
        </mxCell>
        <mxCell id="cost-details" value="• Lifecycle policies: Hot → Cool → Archive&#xa;• Reserved instances for predictable workloads&#xa;• Spot instances for non-critical recovery tests&#xa;• Compression and deduplication enabled&#xa;• Automated cleanup of old snapshots&#xa;• Tiered storage: Premium → Standard → Cool" style="text;html=1;strokeColor=none;fillColor=none;align=left;verticalAlign=middle;whiteSpace=wrap;rounded=0;fontSize=10;" vertex="1" parent="1">
          <mxGeometry x="1100" y="565" width="260" height="85" as="geometry" />
        </mxCell>
        
        <!-- Flow Connections -->
        <!-- Production to Local Backup -->
        <mxCell id="prod-to-backup" value="" style="endArrow=classic;html=1;rounded=0;strokeColor=#388E3C;strokeWidth=4;entryX=0.5;entryY=0;entryDx=0;entryDy=0;exitX=0.5;exitY=1;exitDx=0;exitDy=0;" edge="1" parent="1" source="production-env" target="local-backup">
          <mxGeometry width="50" height="50" relative="1" as="geometry">
            <mxPoint x="500" y="370" as="sourcePoint" />
            <mxPoint x="550" y="320" as="targetPoint" />
          </mxGeometry>
        </mxCell>
        <mxCell id="backup-flow-label" value="Scheduled Backup&#xa;Daily/Hourly" style="text;html=1;strokeColor=none;fillColor=#C8E6C9;align=center;verticalAlign=middle;whiteSpace=wrap;rounded=1;fontSize=10;fontStyle=1;" vertex="1" parent="1">
          <mxGeometry x="480" y="370" width="80" height="25" as="geometry" />
        </mxCell>
        
        <!-- Production to SIRE -->
        <mxCell id="prod-to-sire" value="" style="endArrow=classic;html=1;rounded=0;strokeColor=#D32F2F;strokeWidth=4;entryX=0;entryY=0.5;entryDx=0;entryDy=0;exitX=1;exitY=0.5;exitDx=0;exitDy=0;" edge="1" parent="1" source="production-env" target="sire-env">
          <mxGeometry width="50" height="50" relative="1" as="geometry">
            <mxPoint x="670" y="220" as="sourcePoint" />
            <mxPoint x="700" y="220" as="targetPoint" />
          </mxGeometry>
        </mxCell>
        <mxCell id="sire-replication-label" value="Real-time&#xa;Replication" style="text;html=1;strokeColor=none;fillColor=#FFCDD2;align=center;verticalAlign=middle;whiteSpace=wrap;rounded=1;fontSize=10;fontStyle=1;" vertex="1" parent="1">
          <mxGeometry x="670" y="200" width="60" height="25" as="geometry" />
        </mxCell>
        
        <!-- Local Backup to Cross-Region -->
        <mxCell id="backup-to-crossregion" value="" style="endArrow=classic;html=1;rounded=0;strokeColor=#7B1FA2;strokeWidth=4;entryX=0;entryY=0.5;entryDx=0;entryDy=0;exitX=1;exitY=0.5;exitDx=0;exitDy=0;" edge="1" parent="1" source="local-backup" target="crossregion-backup">
          <mxGeometry width="50" height="50" relative="1" as="geometry">
            <mxPoint x="670" y="480" as="sourcePoint" />
            <mxPoint x="700" y="480" as="targetPoint" />
          </mxGeometry>
        </mxCell>
        <mxCell id="crossregion-flow-label" value="Cross-Region&#xa;Replication" style="text;html=1;strokeColor=none;fillColor=#F3E5F5;align=center;verticalAlign=middle;whiteSpace=wrap;rounded=1;fontSize=10;fontStyle=1;" vertex="1" parent="1">
          <mxGeometry x="670" y="460" width="70" height="25" as="geometry" />
        </mxCell>
        
        <!-- SIRE to Archive -->
        <mxCell id="sire-to-archive" value="" style="endArrow=classic;html=1;rounded=0;strokeColor=#F57F17;strokeWidth=3;entryX=0;entryY=0.25;entryDx=0;entryDy=0;exitX=1;exitY=0.25;exitDx=0;exitDy=0;" edge="1" parent="1" source="sire-env" target="archive-layer">
          <mxGeometry width="50" height="50" relative="1" as="geometry">
            <mxPoint x="1030" y="150" as="sourcePoint" />
            <mxPoint x="1080" y="150" as="targetPoint" />
          </mxGeometry>
        </mxCell>
        <mxCell id="archive-flow-label1" value="Immutable&#xa;Archive" style="text;html=1;strokeColor=none;fillColor=#FFECB3;align=center;verticalAlign=middle;whiteSpace=wrap;rounded=1;fontSize=10;fontStyle=1;" vertex="1" parent="1">
          <mxGeometry x="1030" y="130" width="60" height="25" as="geometry" />
        </mxCell>
        
        <!-- Cross-Region to Archive -->
        <mxCell id="crossregion-to-archive" value="" style="endArrow=classic;html=1;rounded=0;strokeColor=#F57F17;strokeWidth=3;entryX=0;entryY=0.75;entryDx=0;entryDy=0;exitX=1;exitY=0.5;exitDx=0;exitDy=0;" edge="1" parent="1" source="crossregion-backup" target="archive-layer">
          <mxGeometry width="50" height="50" relative="1" as="geometry">
            <mxPoint x="1030" y="480" as="sourcePoint" />
            <mxPoint x="1080" y="440" as="targetPoint" />
          </mxGeometry>
        </mxCell>
        <mxCell id="archive-flow-label2" value="Long-term&#xa;Archive" style="text;html=1;strokeColor=none;fillColor=#FFECB3;align=center;verticalAlign=middle;whiteSpace=wrap;rounded=1;fontSize=10;fontStyle=1;" vertex="1" parent="1">
          <mxGeometry x="1030" y="460" width="60" height="25" as="geometry" />
        </mxCell>
        
        <!-- RPO/RTO Indicators -->
        <mxCell id="rpo-rto-real-time" value="RPO: ~0 minutes&#xa;RTO: &lt; 2 hours" style="text;html=1;strokeColor=#D32F2F;fillColor=#FFEBEE;align=center;verticalAlign=middle;whiteSpace=wrap;rounded=1;fontSize=9;fontStyle=1;" vertex="1" parent="1">
          <mxGeometry x="670" y="240" width="90" height="25" as="geometry" />
        </mxCell>
        
        <mxCell id="rpo-rto-backup" value="RPO: 24 hours&#xa;RTO: 4-8 hours" style="text;html=1;strokeColor=#388E3C;fillColor=#F1F8E9;align=center;verticalAlign=middle;whiteSpace=wrap;rounded=1;fontSize=9;fontStyle=1;" vertex="1" parent="1">
          <mxGeometry x="480" y="570" width="90" height="25" as="geometry" />
        </mxCell>
        
        <mxCell id="rpo-rto-crossregion" value="RPO: 24 hours&#xa;RTO: 8-24 hours" style="text;html=1;strokeColor=#7B1FA2;fillColor=#F3E5F5;align=center;verticalAlign=middle;whiteSpace=wrap;rounded=1;fontSize=9;fontStyle=1;" vertex="1" parent="1">
          <mxGeometry x="850" y="570" width="90" height="25" as="geometry" />
        </mxCell>
        
        <!-- Data Flow Metrics -->
        <mxCell id="flow-metrics" value="📊 Data Flow Metrics" style="text;html=1;strokeColor=#1976D2;fillColor=#E3F2FD;align=center;verticalAlign=middle;whiteSpace=wrap;rounded=1;fontSize=14;fontStyle=1;" vertex="1" parent="1">
          <mxGeometry x="20" y="320" width="280" height="25" as="geometry" />
        </mxCell>
        <mxCell id="metrics-details" value="• Real-time replication: 99.9% consistency&#xa;• Backup success rate: 99.95%&#xa;• Cross-region sync: 99.8% reliability&#xa;• Archive integrity: 100% verified&#xa;• Recovery success: 99.9% automated&#xa;• Data compression ratio: 60-80%&#xa;• Network bandwidth usage: Optimized&#xa;• Storage cost reduction: 40% with tiering" style="text;html=1;strokeColor=none;fillColor=none;align=left;verticalAlign=middle;whiteSpace=wrap;rounded=0;fontSize=10;" vertex="1" parent="1">
          <mxGeometry x="40" y="355" width="260" height="120" as="geometry" />
        </mxCell>
        
        <!-- Security Indicators -->
        <mxCell id="security-measures" value="🔒 Security Measures" style="text;html=1;strokeColor=#D32F2F;fillColor=#FFEBEE;align=center;verticalAlign=middle;whiteSpace=wrap;rounded=1;fontSize=14;fontStyle=1;" vertex="1" parent="1">
          <mxGeometry x="20" y="490" width="280" height="25" as="geometry" />
        </mxCell>
        <mxCell id="security-details" value="• Encryption at rest: AES-256&#xa;• Encryption in transit: TLS 1.3&#xa;• RBAC: Role-based access control&#xa;• MFA: Multi-factor authentication required&#xa;• Private endpoints: No public access&#xa;• Immutable storage: WORM compliance&#xa;• Threat detection: Microsoft Defender&#xa;• Audit logging: All operations tracked" style="text;html=1;strokeColor=none;fillColor=none;align=left;verticalAlign=middle;whiteSpace=wrap;rounded=0;fontSize=10;" vertex="1" parent="1">
          <mxGeometry x="40" y="525" width="260" height="120" as="geometry" />
        </mxCell>
        
        <!-- Monitoring and Alerting -->
        <mxCell id="monitoring-alerting" value="📈 Monitoring &amp; Alerting" style="text;html=1;strokeColor=#F57C00;fillColor=#FFF8E1;align=center;verticalAlign=middle;whiteSpace=wrap;rounded=1;fontSize=14;fontStyle=1;" vertex="1" parent="1">
          <mxGeometry x="20" y="660" width="280" height="25" as="geometry" />
        </mxCell>
        <mxCell id="monitoring-details" value="• Azure Monitor: Real-time metrics&#xa;• Log Analytics: Centralized logging&#xa;• Application Insights: Performance tracking&#xa;• Backup reports: Success/failure alerts&#xa;• Replication lag: Threshold monitoring&#xa;• Storage capacity: Automated scaling&#xa;• Cost alerts: Budget threshold warnings&#xa;• Recovery testing: Automated validation" style="text;html=1;strokeColor=none;fillColor=none;align=left;verticalAlign=middle;whiteSpace=wrap;rounded=0;fontSize=10;" vertex="1" parent="1">
          <mxGeometry x="40" y="695" width="260" height="120" as="geometry" />
        </mxCell>
        
        <!-- Version and Schema Info -->
        <mxCell id="diagram-schema" value="Schema: Backup &amp; Replication Flows&#xa;Version: 1.0 | Updated: January 2024&#xa;Framework: Azure Well-Architected + BC Guide&#xa;Validation: All flows tested and verified" style="text;html=1;strokeColor=#37474F;fillColor=#ECEFF1;align=left;verticalAlign=middle;whiteSpace=wrap;rounded=1;fontSize=9;" vertex="1" parent="1">
          <mxGeometry x="1400" y="100" width="240" height="60" as="geometry" />
        </mxCell>
        
        <!-- Technical Specifications -->
        <mxCell id="tech-specs" value="🔧 Technical Specifications&#xa;• Bandwidth: 1 Gbps dedicated&#xa;• Latency: &lt;50ms cross-region&#xa;• Compression: LZ4 algorithm&#xa;• Deduplication: Block-level&#xa;• Checksum: SHA-256 integrity&#xa;• Encryption: Customer-managed keys" style="text;html=1;strokeColor=#2E7D32;fillColor=#E8F5E8;align=left;verticalAlign=middle;whiteSpace=wrap;rounded=1;fontSize=10;" vertex="1" parent="1">
          <mxGeometry x="1400" y="180" width="240" height="100" as="geometry" />
        </mxCell>
        
        <!-- Recovery Scenarios -->
        <mxCell id="recovery-scenarios" value="🚨 Recovery Scenarios&#xa;• Point-in-time recovery: Any 15-min interval&#xa;• Full environment restore: &lt;4 hours&#xa;• Granular file recovery: &lt;30 minutes&#xa;• Cross-region failover: &lt;2 hours&#xa;• Ransomware recovery: Immutable restore&#xa;• Test recovery: Non-disruptive validation" style="text;html=1;strokeColor=#1565C0;fillColor=#E3F2FD;align=left;verticalAlign=middle;whiteSpace=wrap;rounded=1;fontSize=10;" vertex="1" parent="1">
          <mxGeometry x="1400" y="300" width="240" height="100" as="geometry" />
        </mxCell>
      </root>
    </mxGraphModel>
  </diagram>
</mxfile>